<?xml version="1.0" encoding="utf-8"?>
<!-- Generator: Adobe Illustrator 16.0.0, SVG Export Plug-In . SVG Version: 6.00 Build 0)  -->
<!DOCTYPE svg PUBLIC "-//W3C//DTD SVG 1.1//EN" "http://www.w3.org/Graphics/SVG/1.1/DTD/svg11.dtd">
<svg version="1.1" id="Layer_1" xmlns="http://www.w3.org/2000/svg" xmlns:xlink="http://www.w3.org/1999/xlink" x="0px" y="0px"
	 width="744.28px" height="392.29px" viewBox="0 0 744.28 392.29" enable-background="new 0 0 744.28 392.29" xml:space="preserve">
<g>
	<g id="g272">
		<g id="g278" transform="translate(134.9958,727.2001)">
			<path id="path280" fill="#ADB8BD" d="M371.288-429.483c-1.333-0.682-11.847-6.906-27.456-6.906
				c-21.098,0-35.735,14.689-35.735,34.496c0,19.217,14.007,34.527,35.735,34.527c15.341,0,26.02-6.09,27.456-6.865v34.713
				c-4.094,1.148-15.247,4.6-29.74,4.6c-36.708,0-68.929-25.305-68.929-66.975c0-38.619,29.151-66.943,68.929-66.943
				c15.3,0,26.649,3.73,29.74,4.641V-429.483z"/>
		</g>
		<g id="g282" transform="translate(102.0426,727.2001)">
			<path id="path284" fill="#ADB8BD" d="M63.595-429.483c-1.312-0.682-11.805-6.906-27.414-6.906
				c-21.14,0-35.768,14.689-35.768,34.496c0,19.217,14.018,34.527,35.768,34.527c15.341,0,26.009-6.09,27.414-6.865v34.713
				c-4.052,1.148-15.186,4.6-29.761,4.6c-36.688,0-68.867-25.305-68.867-66.975c0-38.619,29.151-66.943,68.867-66.943
				c15.361,0,26.69,3.73,29.761,4.641V-429.483z"/>
		</g>
		<g id="g286" transform="translate(144.9274,727.8212)">
			<path id="path288" fill="#ADB8BD" d="M464.023-436.526c-19.362,0-33.741,15.238-33.741,34.01
				c0,18.814,14.379,34.041,33.741,34.041c19.341,0,33.762-15.227,33.762-34.041C497.785-421.288,483.364-436.526,464.023-436.526
				 M532.363-402.517c0,36.998-28.563,66.975-68.34,66.975c-39.778,0-68.299-29.977-68.299-66.975
				c0-36.936,28.521-66.943,68.299-66.943C503.8-469.46,532.363-439.452,532.363-402.517"/>
		</g>
		<g id="g290" transform="translate(121.5124,727.9413)">
			<path id="path292" fill="#ADB8BD" d="M245.39-437.887c-0.485-0.154-14.224-3.949-25.512-3.949
				c-13.077,0-20.189,4.383-20.189,10.596c0,7.877,9.594,10.627,14.958,12.322l9.004,2.863c21.182,6.74,30.837,21.244,30.837,36.998
				c0,32.49-28.573,43.406-53.548,43.406c-17.356,0-33.616-3.195-35.219-3.535v-29.762c2.874,0.723,16.561,4.807,30.815,4.807
				c16.239,0,23.703-4.744,23.703-12.074c0-6.553-6.461-10.338-14.555-12.881c-1.975-0.66-4.941-1.592-6.968-2.252
				c-18.173-5.748-33.327-16.426-33.327-37.836c0-24.189,18.111-40.428,48.192-40.428c15.889,0,30.836,3.855,31.808,4.113V-437.887z
				"/>
		</g>
		<g id="g294" transform="translate(89.154,744.2304)">
			<path id="path296" fill="#ADB8BD" d="M-56.749-622.561c0-8.911-7.278-16.137-16.199-16.137s-16.209,7.226-16.209,16.137v33.948
				c0,8.962,7.288,16.198,16.209,16.198s16.199-7.236,16.199-16.198V-622.561z"/>
		</g>
		<g id="g298" transform="translate(97.7633,748.5409)">
			<path id="path300" fill="#ADB8BD" d="M23.638-671.43c0-8.911-7.277-16.157-16.198-16.157c-8.932,0-16.209,7.247-16.209,16.157
				v78.512c0,8.962,7.277,16.188,16.209,16.188c8.921,0,16.198-7.226,16.198-16.188V-671.43z"/>
		</g>
		<g id="g302" transform="translate(106.3727,754.4384)">
			<path id="path304" fill="#ADB8BD" d="M104.027-738.292c0-8.911-7.277-16.147-16.198-16.147c-8.932,0-16.209,7.236-16.209,16.147
				v171.733c0,8.962,7.277,16.198,16.209,16.198c8.921,0,16.198-7.236,16.198-16.198V-738.292z"/>
		</g>
		<g id="g306" transform="translate(114.9821,748.5409)">
			<path id="path308" fill="#ADB8BD" d="M184.415-671.43c0-8.911-7.277-16.157-16.199-16.157c-8.931,0-16.209,7.247-16.209,16.157
				v78.512c0,8.962,7.278,16.188,16.209,16.188c8.922,0,16.199-7.226,16.199-16.188V-671.43z"/>
		</g>
		<g id="g310" transform="translate(123.5817,744.2304)">
			<path id="path312" fill="#ADB8BD" d="M264.712-622.561c0-8.911-7.226-16.137-16.105-16.137c-8.922,0-16.199,7.226-16.199,16.137
				v33.948c0,8.962,7.277,16.198,16.199,16.198c8.88,0,16.105-7.236,16.105-16.198V-622.561z"/>
		</g>
		<g id="g314" transform="translate(132.195,748.5409)">
			<path id="path316" fill="#ADB8BD" d="M345.137-671.43c0-8.911-7.226-16.157-16.146-16.157c-8.911,0-16.157,7.247-16.157,16.157
				v78.512c0,8.962,7.246,16.188,16.157,16.188c8.921,0,16.146-7.226,16.146-16.188V-671.43z"/>
		</g>
		<g id="g318" transform="translate(140.8102,754.4384)">
			<path id="path320" fill="#ADB8BD" d="M425.579-738.292c0-8.911-7.226-16.147-16.147-16.147c-8.931,0-16.157,7.236-16.157,16.147
				v171.733c0,8.962,7.227,16.198,16.157,16.198c8.922,0,16.147-7.236,16.147-16.198V-738.292z"/>
		</g>
		<g id="g322" transform="translate(149.4235,748.5409)">
			<path id="path324" fill="#ADB8BD" d="M506.004-671.43c0-8.911-7.226-16.157-16.354-16.157c-8.921,0-16.147,7.247-16.147,16.157
				v78.512c0,8.962,7.226,16.188,16.147,16.188c9.128,0,16.354-7.226,16.354-16.188V-671.43z"/>
		</g>
		<g id="g326" transform="translate(158.0192,744.2304)">
			<path id="path328" fill="#ADB8BD" d="M586.264-622.561c0-8.911-7.246-16.137-16.156-16.137c-8.922,0-16.168,7.226-16.168,16.137
				v33.948c0,8.962,7.246,16.198,16.168,16.198c8.91,0,16.156-7.236,16.156-16.198V-622.561z"/>
		</g>
		<g id="g330" transform="translate(156.2126,719.9218)">
			<path id="path332" fill="#ADB8BD" d="M569.396-346.969v2.027h-5.769v15h-2.367v-15h-5.799v-2.027H569.396z"/>
		</g>
		<g id="g334" transform="translate(156.3297,719.9218)">
			<path id="path336" fill="#ADB8BD" d="M570.489-346.969h3.712l5.096,13.967h0.083l4.931-13.967h3.639v17.027h-2.429v-13.957
				h-0.083l-5.169,13.957h-2.243l-5.044-13.957h-0.114v13.957h-2.378V-346.969z"/>
		</g>
	</g>
	<path id="path268" fill="#ADB8BD" d="M243.141,390.988h-32.635v-129.33h32.635V390.988z"/>
</g>
</svg>
